<svg width="30" height="27" viewBox="0 0 30 27" fill="none" xmlns="http://www.w3.org/2000/svg">
<path d="M13.1215 2.17929L1.99913 13.3016C1.62423 13.6765 1.62423 14.2844 1.99914 14.6593L12.1615 24.8216C12.5364 25.1965 13.1442 25.1965 13.5191 24.8216L24.6415 13.6993C25.0164 13.3244 25.0164 12.7166 24.6415 12.3416L14.4791 2.17929C14.1042 1.80439 13.4964 1.80439 13.1215 2.17929Z" stroke="white" stroke-width="2.2" stroke-linecap="round" stroke-linejoin="round"/>
<path d="M14.7594 14.4602C16.0849 14.4602 17.1594 13.3856 17.1594 12.0602C17.1594 10.7347 16.0849 9.66016 14.7594 9.66016C13.4339 9.66016 12.3594 10.7347 12.3594 12.0602C12.3594 13.3856 13.4339 14.4602 14.7594 14.4602Z" stroke="white" stroke-width="2.2" stroke-linecap="round" stroke-linejoin="round"/>
<path d="M23.8789 23.1008C23.8789 20.7015 26.2789 18.3008 26.2789 18.3008C26.2789 18.3008 28.6789 20.7015 28.6789 23.1008C28.6789 23.7373 28.4261 24.3478 27.976 24.7978C27.5259 25.2479 26.9154 25.5008 26.2789 25.5008C25.6424 25.5008 25.0319 25.2479 24.5819 24.7978C24.1318 24.3478 23.8789 23.7373 23.8789 23.1008V23.1008Z" stroke="white" stroke-width="2.2" stroke-linecap="round" stroke-linejoin="round"/>
<path d="M13.0628 10.3636L5.38281 2.68359" stroke="white" stroke-width="2.2" stroke-linecap="round" stroke-linejoin="round"/>
</svg>
