<svg width="52" height="52" viewBox="0 0 52 52" fill="none" xmlns="http://www.w3.org/2000/svg">
<g filter="url(#filter0_d)">
<rect x="0.578125" y="0.347656" width="50.7705" height="50.7705" rx="6.34631" fill="white"/>
</g>
<g clip-path="url(#clip0)">
<path d="M12.4136 35.9001L13.8216 38.3319C14.1142 38.844 14.5347 39.2463 15.0284 39.5389C16.4426 37.7438 17.4268 36.3663 17.9815 35.4064C18.5443 34.4323 19.2361 32.9085 20.0568 30.8352C17.845 30.544 16.1689 30.3984 15.0285 30.3984C13.934 30.3984 12.2579 30.544 10 30.8352C10 31.402 10.1463 31.9688 10.4389 32.4808L12.4136 35.9001Z" fill="#0066DA"/>
<path d="M36.8968 39.5389C37.3906 39.2463 37.8112 38.844 38.1036 38.3321L38.6887 37.3264L41.4865 32.4808C41.7736 31.9799 41.9249 31.4126 41.9252 30.8352C39.6542 30.544 37.9813 30.3984 36.906 30.3984C35.7505 30.3984 34.0774 30.544 31.8867 30.8352C32.6977 32.9198 33.3804 34.4436 33.9347 35.4064C34.4938 36.3777 35.4811 37.7552 36.8968 39.5389Z" fill="#EA4335"/>
<path d="M25.962 20.5957C27.5982 18.6197 28.7258 17.0958 29.3447 16.0245C29.8432 15.1617 30.3918 13.7842 30.9904 11.892C30.4967 11.5994 29.9299 11.4531 29.3447 11.4531H22.5793C21.9941 11.4531 21.4274 11.6177 20.9336 11.892C21.6951 14.0622 22.3413 15.6067 22.8721 16.5254C23.4587 17.5408 24.4887 18.8975 25.962 20.5957Z" fill="#00832D"/>
<path d="M31.8678 30.8359H20.0556L15.0273 39.5396C15.5209 39.8322 16.0877 39.9785 16.6729 39.9785H35.2506C35.8357 39.9785 36.4026 39.8139 36.8962 39.5395L31.8679 30.8359H31.8678Z" fill="#2684FC"/>
<path d="M25.9629 20.5942L20.9346 11.8906C20.4408 12.1832 20.0203 12.5854 19.7277 13.0974L10.4389 29.1883C10.1517 29.6892 10.0004 30.2565 10 30.834H20.0568L25.963 20.5942H25.9629Z" fill="#00AC47"/>
<path d="M36.8445 21.1429L32.1999 13.0974C31.9075 12.5854 31.4868 12.1832 30.9931 11.8906L25.9648 20.5943L31.8708 30.8341H41.9094C41.9094 30.2671 41.7631 29.7005 41.4706 29.1884L36.8445 21.1429Z" fill="#FFBA00"/>
</g>
<defs>
<filter id="filter0_d" x="0.260809" y="0.0303406" width="51.4051" height="51.4051" filterUnits="userSpaceOnUse" color-interpolation-filters="sRGB">
<feFlood flood-opacity="0" result="BackgroundImageFix"/>
<feColorMatrix in="SourceAlpha" type="matrix" values="0 0 0 0 0 0 0 0 0 0 0 0 0 0 0 0 0 0 127 0"/>
<feMorphology radius="0.317316" operator="dilate" in="SourceAlpha" result="effect1_dropShadow"/>
<feOffset/>
<feColorMatrix type="matrix" values="0 0 0 0 0 0 0 0 0 0 0 0 0 0 0 0 0 0 0.1 0"/>
<feBlend mode="normal" in2="BackgroundImageFix" result="effect1_dropShadow"/>
<feBlend mode="normal" in="SourceGraphic" in2="effect1_dropShadow" result="shape"/>
</filter>
<clipPath id="clip0">
<rect width="31.9256" height="28.5584" fill="white" transform="translate(10 11.4531)"/>
</clipPath>
</defs>
</svg>
