<svg width="28" height="27" viewBox="0 0 28 27" fill="none" xmlns="http://www.w3.org/2000/svg">
<path d="M6.40059 10.8793C8.99062 10.8793 11.0902 8.77968 11.0902 6.18966C11.0902 3.59963 8.99062 1.5 6.40059 1.5C3.81057 1.5 1.71094 3.59963 1.71094 6.18966C1.71094 8.77968 3.81057 10.8793 6.40059 10.8793Z" stroke="white" stroke-width="2" stroke-linecap="round" stroke-linejoin="round"/>
<path d="M21.2969 16.6719V25.4995" stroke="white" stroke-width="2" stroke-linecap="round" stroke-linejoin="round"/>
<path d="M25.7104 21.0859H16.8828" stroke="white" stroke-width="2" stroke-linecap="round" stroke-linejoin="round"/>
<path d="M5.73435 17.055L1.51343 24.3473C1.44589 24.4639 1.41027 24.5964 1.41016 24.7312C1.41005 24.866 1.44544 24.9985 1.51279 25.1153C1.58014 25.2321 1.67706 25.3291 1.7938 25.3965C1.91054 25.464 2.04298 25.4995 2.17781 25.4995H10.6197C10.7545 25.4995 10.8869 25.464 11.0037 25.3965C11.1204 25.3291 11.2173 25.2321 11.2847 25.1153C11.352 24.9985 11.3874 24.866 11.3873 24.7312C11.3872 24.5964 11.3516 24.4639 11.284 24.3473L7.06311 17.055C6.99568 16.9385 6.8988 16.8417 6.78219 16.7745C6.66558 16.7073 6.53334 16.6719 6.39873 16.6719C6.26412 16.6719 6.13188 16.7073 6.01527 16.7745C5.89866 16.8417 5.80178 16.9385 5.73435 17.055V17.055Z" stroke="white" stroke-width="2" stroke-linecap="round" stroke-linejoin="round"/>
<path d="M26.1517 1.77539H16.4414C16.1976 1.77539 16 1.973 16 2.21677V10.1616C16 10.4054 16.1976 10.603 16.4414 10.603H26.1517C26.3955 10.603 26.5931 10.4054 26.5931 10.1616V2.21677C26.5931 1.973 26.3955 1.77539 26.1517 1.77539Z" stroke="white" stroke-width="2" stroke-linecap="round" stroke-linejoin="round"/>
</svg>
