<svg width="51" height="52" viewBox="0 0 51 52" fill="none" xmlns="http://www.w3.org/2000/svg">
<rect y="0.347656" width="50.7705" height="50.7705" rx="6.34631" fill="#3B5998"/>
<path d="M40.7553 25.7452C40.7553 17.2545 33.876 10.3752 25.3853 10.3752C16.8946 10.3752 10.0153 17.2545 10.0153 25.7452C10.0153 33.4302 15.5932 39.8137 22.9683 40.9292V30.2074H19.0638V25.7452H22.9683V22.3985C22.9683 18.556 25.2614 16.3869 28.732 16.3869C30.4673 16.3869 32.2026 16.6967 32.2026 16.6967V20.4773H30.2814C28.3601 20.4773 27.7404 21.6548 27.7404 22.8943V25.7452H32.0167L31.335 30.2074H27.7404V40.9292C35.1155 39.8137 40.7553 33.4302 40.7553 25.7452Z" fill="white"/>
</svg>
