<svg width="28" height="28" viewBox="0 0 28 28" fill="none" xmlns="http://www.w3.org/2000/svg">
<path d="M26 6.67763V24.5022C26 24.8 25.9063 25.0856 25.7397 25.2961C25.573 25.5067 25.3469 25.625 25.1111 25.625H3C2.73478 25.625 2.48043 25.4919 2.29289 25.255C2.10536 25.0181 2 24.6969 2 24.3618V2.88816C2 2.55315 2.10536 2.23186 2.29289 1.99497C2.48043 1.75808 2.73478 1.625 3 1.625H9.66667C9.88304 1.625 10.0936 1.71365 10.2667 1.87763L13.7333 5.16184C13.9064 5.32583 14.117 5.41447 14.3333 5.41447H25C25.2652 5.41447 25.5196 5.54756 25.7071 5.78444C25.8946 6.02133 26 6.34262 26 6.67763Z" stroke="white" stroke-width="2.2" stroke-linecap="round" stroke-linejoin="round"/>
<path d="M11.8672 17.7266H7.46094L6.53906 20.375H4.48438L8.78125 9H10.5547L14.8594 20.375H12.7969L11.8672 17.7266ZM8.01562 16.1328H11.3125L9.66406 11.4141L8.01562 16.1328ZM21.0234 20.375C20.9401 20.2135 20.8672 19.9505 20.8047 19.5859C20.2005 20.2161 19.4609 20.5312 18.5859 20.5312C17.737 20.5312 17.0443 20.2891 16.5078 19.8047C15.9714 19.3203 15.7031 18.7214 15.7031 18.0078C15.7031 17.1068 16.0365 16.4167 16.7031 15.9375C17.375 15.4531 18.3333 15.2109 19.5781 15.2109H20.7422V14.6562C20.7422 14.2188 20.6198 13.8698 20.375 13.6094C20.1302 13.3438 19.7578 13.2109 19.2578 13.2109C18.8255 13.2109 18.4714 13.3203 18.1953 13.5391C17.9193 13.7526 17.7812 14.026 17.7812 14.3594H15.8828C15.8828 13.8958 16.0365 13.4635 16.3438 13.0625C16.651 12.6562 17.0677 12.3385 17.5938 12.1094C18.125 11.8802 18.7161 11.7656 19.3672 11.7656C20.3568 11.7656 21.1458 12.0156 21.7344 12.5156C22.3229 13.0104 22.625 13.7083 22.6406 14.6094V18.4219C22.6406 19.1823 22.7474 19.7891 22.9609 20.2422V20.375H21.0234ZM18.9375 19.0078C19.3125 19.0078 19.6641 18.9167 19.9922 18.7344C20.3255 18.5521 20.5755 18.3073 20.7422 18V16.4062H19.7188C19.0156 16.4062 18.487 16.5286 18.1328 16.7734C17.7786 17.0182 17.6016 17.3646 17.6016 17.8125C17.6016 18.1771 17.7214 18.4688 17.9609 18.6875C18.2057 18.901 18.5312 19.0078 18.9375 19.0078Z" fill="white"/>
</svg>
