<svg width="28" height="23" viewBox="0 0 28 23" fill="none" xmlns="http://www.w3.org/2000/svg">
<path d="M25 1.5H3C2.44772 1.5 2 1.94772 2 2.5V20.5C2 21.0523 2.44772 21.5 3 21.5H25C25.5523 21.5 26 21.0523 26 20.5V2.5C26 1.94772 25.5523 1.5 25 1.5Z" stroke="white" stroke-width="2.5" stroke-linecap="round" stroke-linejoin="round"/>
<path d="M2 16.4998L8.29288 10.207C8.38573 10.1141 8.49597 10.0404 8.6173 9.99018C8.73862 9.93993 8.86866 9.91406 8.99998 9.91406C9.1313 9.91406 9.26134 9.93993 9.38267 9.99018C9.50399 10.0404 9.61423 10.1141 9.70709 10.207L15.2929 15.7927C15.3857 15.8856 15.496 15.9593 15.6173 16.0095C15.7386 16.0598 15.8687 16.0856 16 16.0856C16.1313 16.0856 16.2613 16.0598 16.3827 16.0095C16.504 15.9593 16.6142 15.8856 16.7071 15.7927L19.2929 13.207C19.3857 13.1141 19.496 13.0404 19.6173 12.9902C19.7386 12.9399 19.8687 12.9141 20 12.9141C20.1313 12.9141 20.2613 12.9399 20.3827 12.9902C20.504 13.0404 20.6142 13.1141 20.7071 13.207L26 18.4999" stroke="white" stroke-width="2.5" stroke-linecap="round" stroke-linejoin="round"/>
<path d="M17.5 10C18.6046 10 19.5 9.10457 19.5 8C19.5 6.89543 18.6046 6 17.5 6C16.3954 6 15.5 6.89543 15.5 8C15.5 9.10457 16.3954 10 17.5 10Z" fill="white"/>
</svg>
