<svg width="29" height="33" viewBox="0 0 29 33" fill="none" xmlns="http://www.w3.org/2000/svg">
<path d="M9.2418 33C8.10286 32.9407 7.03112 32.4646 6.24764 31.6701C5.31044 30.8058 4.47411 29.8464 3.75341 28.8088C2.62764 27.2636 1.73774 25.5723 1.11065 23.786C0.40035 21.8643 0.0263961 19.8433 0.00391257 17.8048C-0.0506699 15.8044 0.466732 13.8279 1.50009 12.0892C2.25646 10.8358 3.33532 9.78915 4.63372 9.04909C5.91776 8.31218 7.38302 7.91553 8.87953 7.89972C10.0077 7.96369 11.1163 8.21086 12.1581 8.63066C12.9887 8.98096 13.8629 9.22721 14.7592 9.36334C15.7482 9.16474 16.7146 8.87399 17.6446 8.49524C18.7453 8.08326 19.9107 7.85257 21.0916 7.81291C21.2492 7.81291 21.405 7.81291 21.5554 7.83027C24.1447 7.90225 26.5531 9.12059 28.0762 11.1291C25.6544 12.3702 24.1673 14.812 24.2307 17.4436C24.2068 19.4395 25.075 21.3499 26.6163 22.6922C27.3098 23.3256 28.1175 23.8332 29 24.1905C28.8189 24.7114 28.6106 25.2149 28.3896 25.7218C27.8873 26.8422 27.2676 27.9108 26.5402 28.9112C25.8534 29.9134 25.0541 30.8402 24.1565 31.6753C23.337 32.4546 22.2448 32.9144 21.0916 32.9653C20.1142 32.9237 19.1539 32.7039 18.2623 32.3177C17.3009 31.9162 16.2676 31.6963 15.2192 31.6701C14.1413 31.6903 13.0775 31.909 12.0856 32.3142C11.2289 32.6847 10.3137 32.9153 9.37765 32.9965L9.2418 33ZM14.9475 7.81291C14.8117 7.81291 14.6758 7.81291 14.54 7.79729C14.5114 7.59062 14.4963 7.38245 14.4947 7.17399C14.554 5.43975 15.261 3.78359 16.4872 2.50708C17.1725 1.77367 18.0031 1.17818 18.9307 0.755248C19.7963 0.328145 20.7423 0.0713553 21.7129 0C21.7401 0.227443 21.7401 0.449676 21.7401 0.661493C21.7145 2.36844 21.0454 4.00885 19.8563 5.27979C18.6908 6.77775 16.8939 7.70504 14.9475 7.81291Z" fill="black"/>
</svg>
