<svg xmlns="http://www.w3.org/2000/svg" width="26" height="26" viewBox="0 0 32 32"><path d="M18.911 4.872a2.865 2.865 0 01-1.493 2.509c1.539 3.995 3.148 5.961 4.563 6.116 1.608.176 3.079-.55 4.519-2.338.081-.1.168-.186.261-.257a2.839 2.839 0 01-.58-1.721c0-1.586 1.303-2.872 2.91-2.872S32 7.595 32 9.181c0 1.584-1.298 2.868-2.901 2.872a1.548 1.548 0 01-.048.348l-2.359 9.313c-.486 1.918-2.231 3.263-4.234 3.263H9.544c-2.003 0-3.748-1.346-4.234-3.263l-2.358-9.313a1.548 1.548 0 01-.048-.348C1.299 12.05 0 10.765 0 9.181c0-1.586 1.303-2.872 2.909-2.872s2.909 1.286 2.909 2.872a2.83 2.83 0 01-.579 1.719c.1.078.195.172.281.283 1.371 1.779 2.828 2.498 4.501 2.314 1.484-.163 3.085-2.121 4.565-6.115a2.866 2.866 0 01-1.495-2.511c0-1.586 1.303-2.872 2.909-2.872s2.909 1.286 2.909 2.872zM7.273 27.131H24.73c.803 0 1.455.643 1.455 1.436s-.651 1.436-1.455 1.436H7.273c-.803 0-1.455-.643-1.455-1.436s.651-1.436 1.455-1.436z" fill="#fbbe28"></path></svg>