<svg width="39" height="39" viewBox="0 0 39 39" fill="none" xmlns="http://www.w3.org/2000/svg">
<path d="M0 19.6174C0.00226883 29.2692 6.97764 37.4873 16.4516 39V25.2875H11.5046V19.6174H16.4574V15.3009C16.236 13.2556 16.9303 11.2172 18.3521 9.73852C19.7738 8.25984 21.7756 7.49415 23.8145 7.64912C25.278 7.6729 26.7378 7.80405 28.1824 8.04153V12.8661H25.7177C24.8691 12.7543 24.0161 13.0362 23.3987 13.6326C22.7814 14.2289 22.4667 15.0751 22.5432 15.9327V19.6174H27.9464L27.0826 25.2895H22.5432V39C32.789 37.3707 39.9738 27.9554 38.8924 17.5751C37.811 7.19466 28.842 -0.516879 18.4831 0.027085C8.12412 0.57105 0.00164667 9.18009 0 19.6174Z" fill="#3B5EB9"/>
</svg>
