<svg width="90" height="120" viewBox="0 0 90 120" fill="none" xmlns="http://www.w3.org/2000/svg">
<path d="M54.6975 0H15C11.0218 0 7.20644 1.58035 4.3934 4.3934C1.58035 7.20644 0 11.0218 0 15V105C0 108.978 1.58035 112.794 4.3934 115.607C7.20644 118.42 11.0218 120 15 120H75C78.9782 120 82.7936 118.42 85.6066 115.607C88.4196 112.794 90 108.978 90 105V35.3025C89.9996 33.3135 89.2091 31.4062 87.8025 30L60 2.1975C58.5938 0.79088 56.6865 0.000424781 54.6975 0V0ZM56.25 26.25V11.25L78.75 33.75H63.75C61.7609 33.75 59.8532 32.9598 58.4467 31.5533C57.0402 30.1468 56.25 28.2391 56.25 26.25ZM67.5 49.8V62.925L52.5 66.675V93.75C52.5 97.4625 50.2425 100.372 47.535 102.173C44.805 103.995 41.2425 105 37.5 105C33.75 105 30.195 103.995 27.465 102.173C24.765 100.372 22.5 97.4625 22.5 93.75C22.5 90.0375 24.7575 87.1275 27.465 85.3275C30.195 83.505 33.7575 82.5 37.5 82.5C40.17 82.5 42.75 83.01 45 83.97V51.675C45 50.003 45.5588 48.379 46.5874 47.0609C47.6161 45.7429 49.0556 44.8063 50.6775 44.4L58.1775 42.525C59.2834 42.248 60.4378 42.2267 61.5532 42.4628C62.6685 42.6989 63.7153 43.1861 64.6141 43.8875C65.5129 44.5889 66.2399 45.4859 66.74 46.5104C67.24 47.5349 67.5 48.66 67.5 49.8Z" fill="#7236DF"/>
</svg>
