<svg id="Layer_1" data-name="Layer 1" xmlns="http://www.w3.org/2000/svg" viewBox="0 0 448.95 187.06"><defs><style>.cls-1,.cls-2{fill-rule:evenodd;}.cls-2{fill:#fff;}</style></defs><title>Artboard 1</title><path class="cls-1" d="M225.63,136.24c-35.47,0-53.91-7.82-64.94-26.26-6.21-10.62-8.42-29.64-8.42-41.87s2.21-31.24,8.42-41.86C171.71,7.82,190.15,0,225.63,0s53.91,7.82,64.93,26.26C296.78,36.88,299,55.9,299,68.12s-2.2,31.25-8.42,41.87C279.54,128.43,261.1,136.24,225.63,136.24Z"/><path class="cls-2" d="M243.46,106.63a13.51,13.51,0,0,1-12.62-8.22L213.19,55.72A13.47,13.47,0,0,1,238,45.3L255.68,88A13.5,13.5,0,0,1,243.46,106.63Z"/><path class="cls-2" d="M208,106.63a13.51,13.51,0,0,1-12.63-8.22L177.72,55.72A13.48,13.48,0,0,1,202.57,45.3L220.21,88A13.5,13.5,0,0,1,208,106.63Z"/><path class="cls-2" d="M265.6,74.37A13.51,13.51,0,0,1,253,66.15l-4.31-10.43A13.47,13.47,0,0,1,273.52,45.3l4.31,10.44A13.5,13.5,0,0,1,265.6,74.37Z"/><path d="M30.34,163.6l-7,21.91a2,2,0,0,1-1.89,1.36,1.86,1.86,0,0,1-1.77-1.32l-4.46-16-4.5,16A1.81,1.81,0,0,1,9,186.87a2,2,0,0,1-1.89-1.36l-7-21.91a2.58,2.58,0,0,1-.08-.53,1.91,1.91,0,0,1,1.32-1.89,1.52,1.52,0,0,1,.57-.11,1.94,1.94,0,0,1,1.85,1.36l5.18,16.21,4.57-16.25a1.8,1.8,0,0,1,3.48,0l4.53,16.25,5.18-16.21a1.94,1.94,0,0,1,1.85-1.36,1.51,1.51,0,0,1,.57.11A1.94,1.94,0,0,1,30.45,163,1.52,1.52,0,0,1,30.34,163.6Zm24.13,23.08a2,2,0,0,1-.79.19,1.88,1.88,0,0,1-1.74-1.13l-2.38-5.36H37.93l-2.38,5.36a1.94,1.94,0,0,1-1.77,1.13,1.79,1.79,0,0,1-.76-.15,1.91,1.91,0,0,1-1.1-1.74,2.18,2.18,0,0,1,.15-.83l9.94-22a2,2,0,0,1,1.74-1.13,1.91,1.91,0,0,1,1.74,1.13l9.94,22a2,2,0,0,1,.15.79A1.85,1.85,0,0,1,54.47,186.68Zm-10.73-19.3-4.27,9.56H48ZM77,175.31s.15.27,4.27,8.73a1.58,1.58,0,0,1,.19.83,2,2,0,0,1-1.1,1.81,1.71,1.71,0,0,1-.87.19,1.94,1.94,0,0,1-1.78-1.13L73,176H65.2v8.88a2,2,0,0,1-4,0V163.41a2,2,0,0,1,2-2h9.9c4.72,0,8.54,2.27,8.54,7.33A6.6,6.6,0,0,1,77,175.31Zm-3.44-10.2H65.2v7.4h8.39a3.65,3.65,0,0,0,4-3.66A3.69,3.69,0,0,0,73.59,165.11Zm33.79,21.76a1.71,1.71,0,0,1-1.47-.72L92.6,168.24V185a1.9,1.9,0,0,1-1.93,1.89A1.87,1.87,0,0,1,88.78,185V163a1.92,1.92,0,0,1,2-1.93,1.84,1.84,0,0,1,1.44.72s7.48,10.39,13.3,17.91V163a1.9,1.9,0,0,1,1.89-1.93A1.93,1.93,0,0,1,109.3,163v22A1.9,1.9,0,0,1,107.37,186.87Zm26.52-.3H119.31a2,2,0,0,1-2-2V163.41a2,2,0,0,1,2-2h14a1.87,1.87,0,0,1,1.93,1.85,1.94,1.94,0,0,1-1.93,1.93h-12v6.65H128a1.89,1.89,0,0,1,0,3.78h-6.73v7.18h12.58a1.89,1.89,0,1,1,0,3.78Zm24-11.26s.15.27,4.27,8.73a1.59,1.59,0,0,1,.19.83,2,2,0,0,1-1.09,1.81,1.72,1.72,0,0,1-.87.19,1.94,1.94,0,0,1-1.78-1.13L153.88,176h-7.82v8.88a2,2,0,0,1-4,0V163.41a2,2,0,0,1,2-2h9.9c4.72,0,8.54,2.27,8.54,7.33A6.6,6.6,0,0,1,157.89,175.31Zm-3.44-10.2h-8.39v7.4h8.39a3.65,3.65,0,0,0,4-3.66A3.69,3.69,0,0,0,154.45,165.11Zm49.27,21.76a1.87,1.87,0,0,1-1.89-1.89V171c-4.53,9.18-7,14.85-7,14.85a1.82,1.82,0,0,1-3.29,0L184.45,171v13.9a1.93,1.93,0,0,1-1.93,1.93,1.9,1.9,0,0,1-1.89-1.93V163a1.87,1.87,0,0,1,1.89-1.89,2,2,0,0,1,1.77,1.21l8.88,18.59,8.8-18.63a1.9,1.9,0,0,1,1.74-1.17,1.93,1.93,0,0,1,1.93,1.93v22A1.9,1.9,0,0,1,203.72,186.87Zm19.27.19c-6.38,0-10.5-4.19-10.5-10.65v-13.3a2,2,0,0,1,2-2,2,2,0,0,1,2,2v13.82c0,3.82,2.31,6.42,6.46,6.42s6.42-2.61,6.42-6.42V163.11a2,2,0,0,1,4.08,0v13.3C233.49,182.87,229.37,187.06,223,187.06Zm188.23,0c-6.38,0-10.51-4.19-10.51-10.65v-13.3a2,2,0,0,1,2-2,2,2,0,0,1,2,2v13.82c0,3.82,2.3,6.42,6.46,6.42s6.42-2.61,6.42-6.42V163.11a2,2,0,0,1,4.08,0v13.3C421.72,182.87,417.6,187.06,411.22,187.06Zm-142.76-.19a2,2,0,0,1-2-2V163.11a2,2,0,0,1,2-2,2,2,0,0,1,2,2v21.72A2,2,0,0,1,268.46,186.87Zm31.06-4.65A12.9,12.9,0,1,1,289.58,161a12.09,12.09,0,0,1,8.46,3.29,2,2,0,0,1,.64,1.4,1.86,1.86,0,0,1-.45,1.21,1.72,1.72,0,0,1-1.32.64,2,2,0,0,1-1.25-.45,8.57,8.57,0,0,0-6.08-2.34c-5.29,0-8.69,4.31-8.69,9.29s3.4,9.37,8.69,9.37a8.83,8.83,0,0,0,7.25-3.67,1.7,1.7,0,0,1,1.28-.57,1.82,1.82,0,0,1,1.29.49,1.69,1.69,0,0,1,.57,1.29A2.17,2.17,0,0,1,299.52,182.22Zm38.41.19A13.08,13.08,0,1,1,327.61,161a12.37,12.37,0,0,1,8.61,3.21,2.07,2.07,0,0,1,.68,1.51,1.77,1.77,0,0,1-1.74,1.74A1.88,1.88,0,0,1,334,167a9.43,9.43,0,0,0-6.39-2.38c-5.29,0-8.76,4.38-8.76,9.37s3.47,9.33,8.76,9.33a9.06,9.06,0,0,0,6.73-2.72v-4.5h-5.59a1.81,1.81,0,1,1,0-3.63h7.59a2,2,0,0,1,2,2v6.57A1.73,1.73,0,0,1,337.93,182.41Zm22.92-7.1s.15.27,4.27,8.73a1.59,1.59,0,0,1,.19.83,2,2,0,0,1-1.1,1.81,1.71,1.71,0,0,1-.87.19,1.94,1.94,0,0,1-1.78-1.13L356.84,176H349v8.88a2,2,0,0,1-4,0V163.41a2,2,0,0,1,2-2h9.9c4.72,0,8.54,2.27,8.54,7.33A6.6,6.6,0,0,1,360.84,175.31Zm-3.44-10.2H349v7.4h8.39a3.65,3.65,0,0,0,4-3.66A3.69,3.69,0,0,0,357.4,165.11Zm25.25,22A13.06,13.06,0,1,1,395.42,174,12.9,12.9,0,0,1,382.66,187.06Zm0-22.4c-5.25,0-8.77,4.31-8.77,9.33s3.51,9.33,8.77,9.33,8.73-4.31,8.73-9.33S387.91,164.65,382.66,164.65Zm57.76,11.86h-7.74v8.35a2,2,0,0,1-2,2,2,2,0,0,1-2-2V163.41a2,2,0,0,1,2-2h9.78c5.86,0,8.54,3.59,8.54,7.59S446.27,176.52,440.42,176.52Zm.53-11.41h-8.28v7.67h8.28a3.66,3.66,0,0,0,3.93-3.78A3.75,3.75,0,0,0,440.95,165.11ZM255.79,166a17.38,17.38,0,0,0-6.11-1.33c-2.47,0-5.84.48-5.84,3,0,2.82,5.16,3.92,8,4.86,4.1,1.36,7.86,2.57,7.86,7.17,0,5.48-5.1,7.37-10.12,7.37-2.8,0-6.74-.62-9.24-2.24a1.86,1.86,0,0,1-.89-1.7,1.73,1.73,0,0,1,1.76-1.83,3.47,3.47,0,0,1,1.29.37,15.5,15.5,0,0,0,7.07,1.65c2.54,0,6.1-.64,6.1-3.48s-4.54-3.36-9.18-5c-3.34-1.21-6.69-2.62-6.69-7.14,0-5.18,5.07-6.72,9.79-6.72a22.24,22.24,0,0,1,7.81,1.64,1.87,1.87,0,0,1,1.18,1.68,1.74,1.74,0,0,1-1.77,1.88A3.1,3.1,0,0,1,255.79,166Z"/></svg>